<?xml version="1.0" encoding="iso-8859-1"?>
<!-- Generator: Adobe Illustrator 19.0.0, SVG Export Plug-In . SVG Version: 6.00 Build 0)  -->
<svg version="1.1" id="Layer_1" xmlns="http://www.w3.org/2000/svg" xmlns:xlink="http://www.w3.org/1999/xlink" x="0px" y="0px"
	 viewBox="0 0 512 512" style="enable-background:new 0 0 512 512;" xml:space="preserve">
<g>
	<g>
		<g>
			<path d="M427.944,237.268h-12.915c-9.38-87.915-83.989-156.622-174.352-156.622c-96.691,0-175.353,78.663-175.353,175.354
				s78.662,175.354,175.353,175.354c90.363,0,164.973-68.707,174.352-156.622h12.915c10.345,0,18.732-8.387,18.732-18.732
				C446.676,245.655,438.29,237.268,427.944,237.268z M259.402,256c0,4.969-1.973,9.733-5.487,13.245l-36.873,36.873
				c-7.314,7.314-19.175,7.317-26.49,0c-7.315-7.315-7.315-19.175,0-26.49l31.387-31.387v-67.823
				c0-10.345,8.387-18.732,18.732-18.732s18.732,8.387,18.732,18.732V256z"/>
			<path d="M345.137,426.882c-64.009,39.273-144.872,39.297-208.919,0c-8.342-5.117-19.06,0.822-19.06,10.608v55.778
				c0,10.345,8.387,18.732,18.732,18.732h209.574c10.345,0,18.732-8.387,18.732-18.732V437.49
				C364.197,427.704,353.478,421.763,345.137,426.882z"/>
			<path d="M136.219,85.118c64.009-39.273,144.872-39.295,208.919,0c8.342,5.118,19.06-0.823,19.06-10.608V18.732
				C364.197,8.387,355.811,0,345.466,0H135.89c-10.345,0-18.732,8.387-18.732,18.732V74.51
				C117.159,84.296,127.878,90.236,136.219,85.118z"/>
		</g>
	</g>
</g>
<g>
</g>
<g>
</g>
<g>
</g>
<g>
</g>
<g>
</g>
<g>
</g>
<g>
</g>
<g>
</g>
<g>
</g>
<g>
</g>
<g>
</g>
<g>
</g>
<g>
</g>
<g>
</g>
<g>
</g>
</svg>
