<svg enable-background="new 0 0 128 128" height="128px" id="Layer_1" version="1.1" viewBox="0 0 128 128" width="128px" xml:space="preserve" xmlns="http://www.w3.org/2000/svg" xmlns:xlink="http://www.w3.org/1999/xlink">
  <g>
  <path d="M63.999,46.284c22.271,0,45.938-4.101,45.938-11.7c0-7.6-23.668-11.7-45.938-11.7   c-22.27,0-45.938,4.101-45.938,11.7C18.061,42.183,41.729,46.284,63.999,46.284z M63.999,24.884c25.896,0,43.938,5.112,43.938,9.7   c0,4.588-18.045,9.7-43.938,9.7s-43.938-5.112-43.938-9.7C20.061,29.996,38.105,24.884,63.999,24.884z" fill="#2BACE2"/><path d="M108.939,44.284c-0.554,0-1,0.448-1,1v8.132c0,4.587-18.045,9.699-43.939,9.699   c-25.894,0-43.938-5.112-43.938-9.699v-8.132c0-0.552-0.447-1-1-1c-0.554,0-1,0.448-1,1v8.132c0,7.599,23.669,11.699,45.938,11.699   s45.939-4.1,45.939-11.699v-8.132C109.939,44.732,109.49,44.284,108.939,44.284z" fill="#2BACE2"/><path d="M108.939,64.284c-0.554,0-1,0.447-1,1v8.133c0,4.588-18.045,9.699-43.939,9.699   c-25.894,0-43.938-5.111-43.938-9.699v-8.133c0-0.553-0.447-1-1-1c-0.554,0-1,0.447-1,1v8.133c0,7.6,23.669,11.699,45.938,11.699   s45.939-4.1,45.939-11.699v-8.133C109.939,64.732,109.49,64.284,108.939,64.284z" fill="#2BACE2"/><path d="M108.939,84.283c-0.554,0-1,0.447-1,1v8.133c0,4.588-18.045,9.699-43.939,9.699   c-25.894,0-43.938-5.111-43.938-9.699v-8.133c0-0.553-0.447-1-1-1c-0.554,0-1,0.447-1,1v8.133c0,7.6,23.669,11.699,45.938,11.699   s45.939-4.1,45.939-11.699v-8.133C109.939,84.732,109.49,84.283,108.939,84.283z" fill="#2BACE2"/>
  </g>
</svg>