<?xml version="1.0" standalone="no"?>
<!DOCTYPE svg PUBLIC "-//W3C//DTD SVG 20010904//EN"
 "http://www.w3.org/TR/2001/REC-SVG-20010904/DTD/svg10.dtd">
<svg version="1.0" xmlns="http://www.w3.org/2000/svg"
 width="1257.000000pt" height="1280.000000pt" viewBox="0 0 1257.000000 1280.000000"
 preserveAspectRatio="xMidYMid meet">
<metadata>
Created by potrace 1.15, written by Peter Selinger 2001-2017
</metadata>
<g transform="translate(0.000000,1280.000000) scale(0.100000,-0.100000)"
fill="#000000" stroke="none">
<path d="M7484 12789 c-67 -19 -123 -121 -109 -198 15 -81 61 -135 125 -148
l30 -6 -2 -2120 -3 -2121 -47 3 -48 3 0 -166 0 -166 -195 0 -195 0 -2 163 -3
162 -55 1 -55 1 -3 1128 c-2 1114 -2 1127 18 1152 27 35 43 99 35 142 -10 57
-50 116 -91 136 -49 23 -148 17 -186 -10 -65 -48 -90 -154 -55 -236 20 -50 76
-90 132 -97 l45 -5 -2 -1104 -3 -1105 -85 -2 -85 -1 -3 -162 -2 -163 -195 0
-194 0 0 163 0 162 -83 0 -83 0 -5 720 -5 720 -542 3 -543 2 0 755 0 755 28
42 c23 36 27 52 27 113 0 63 -3 76 -28 108 -38 50 -75 67 -145 67 -45 0 -67
-6 -93 -23 -67 -44 -98 -153 -65 -230 17 -41 76 -93 115 -102 l31 -7 0 -789 0
-789 555 0 555 0 0 -672 0 -673 -52 0 -53 0 -3 -162 -2 -163 -195 0 -195 0 -2
163 -3 162 -48 0 -47 0 0 418 0 417 -633 0 -634 0 -24 26 c-37 40 -73 54 -137
54 -45 0 -67 -5 -93 -23 -110 -74 -104 -253 11 -314 109 -58 238 3 257 122 l6
35 553 0 554 0 -2 -366 -3 -367 -70 -1 -70 -1 -3 -162 -2 -163 -195 0 -195 0
-2 163 -3 162 -30 0 -30 1 -3 182 -2 182 -1093 0 -1092 0 -50 26 c-123 63
-255 -19 -255 -159 0 -62 19 -105 63 -144 93 -82 246 -32 279 91 l12 46 1003
0 1004 0 -3 -111 -3 -111 -95 -1 -95 -2 -3 -162 -2 -163 -240 0 -240 0 0 -345
0 -345 -165 0 -165 0 0 -40 0 -40 -1038 0 -1039 0 -33 41 c-94 117 -272 81
-310 -63 -21 -77 10 -159 79 -205 26 -17 48 -23 91 -23 67 0 111 25 149 83
l24 37 1039 0 1038 0 0 -90 0 -90 165 0 165 0 0 -195 0 -195 -165 0 -165 0 0
-70 0 -70 -1610 0 -1610 0 0 930 0 930 25 16 c41 27 68 96 63 165 -5 62 -23
97 -69 132 -56 41 -152 41 -208 0 -58 -42 -85 -139 -60 -214 13 -38 63 -96 91
-105 17 -5 18 -51 20 -997 l3 -992 1677 -3 1678 -2 0 -60 0 -60 165 0 165 0 0
-195 0 -195 -164 0 -165 0 -3 -47 -3 -48 -1037 -3 -1036 -2 -31 -39 -31 -39 0
-740 0 -740 -35 -6 c-110 -21 -168 -180 -101 -278 35 -51 70 -71 134 -76 100
-7 158 35 184 133 13 50 0 125 -28 156 -12 13 -14 125 -14 753 0 489 -3 744
-10 757 -11 19 4 19 1000 19 l1010 0 0 -95 0 -95 165 0 165 0 0 -285 0 -285
300 0 300 0 0 -165 0 -165 40 0 40 0 0 -779 c0 -772 0 -779 -21 -805 l-20 -26
-657 0 -657 1 -20 31 c-30 48 -78 71 -145 71 -104 0 -173 -71 -174 -178 -1
-197 249 -255 334 -78 l25 53 674 0 673 0 59 51 59 51 0 804 0 804 90 0 90 0
0 165 0 165 195 0 195 0 0 -161 c0 -152 1 -161 20 -166 20 -5 20 -14 20 -1818
l0 -1814 -26 -20 c-26 -21 -36 -21 -550 -21 -330 0 -524 4 -524 10 0 18 -65
83 -97 96 -80 34 -178 2 -221 -71 -33 -58 -28 -157 11 -209 41 -53 78 -69 151
-64 74 4 116 30 143 88 l18 39 541 1 541 0 74 53 74 53 3 1837 2 1836 108 3
107 3 3 163 2 162 195 0 195 0 0 -165 0 -165 50 0 50 0 0 -1520 0 -1519 -42
-12 c-110 -29 -154 -161 -94 -277 32 -62 117 -93 197 -72 116 31 163 186 88
291 -18 26 -19 71 -19 1568 l0 1541 80 0 80 0 0 165 0 165 195 0 195 0 0 -165
0 -165 80 0 80 0 0 -1995 c0 -1961 0 -1994 -19 -2005 -13 -6 -241 -10 -671
-10 -647 0 -651 0 -679 21 -78 57 -194 37 -255 -44 -32 -43 -34 -150 -4 -202
41 -71 143 -104 221 -71 44 18 95 78 103 121 l6 35 650 0 651 0 68 56 69 56 0
2019 0 2019 45 0 45 0 0 165 0 165 195 0 195 0 2 -163 3 -162 195 0 195 0 3
163 2 162 195 0 195 0 0 -165 0 -165 195 0 195 0 0 165 0 165 195 0 195 0 2
-162 3 -163 192 -3 193 -2 2 162 3 163 393 3 392 2 0 490 0 490 160 0 160 0 0
60 0 60 660 0 660 0 0 -770 0 -770 -39 -24 c-77 -49 -103 -161 -58 -247 58
-109 218 -122 293 -23 26 34 29 45 29 114 0 69 -3 80 -29 114 -16 21 -44 44
-62 52 l-34 14 -2 838 -3 837 -707 3 -708 2 0 68 0 67 -160 -3 -160 -3 0 201
0 200 160 0 159 0 3 88 3 87 801 3 801 2 18 -41 c61 -134 254 -130 316 6 65
143 -52 291 -201 255 -44 -11 -110 -59 -110 -81 0 -5 -344 -8 -812 -7 l-813 3
-3 38 -3 37 -160 0 -159 0 0 530 0 530 -450 0 -450 0 -2 163 c-2 123 -6 161
-15 160 -10 -2 -13 184 -13 907 l0 910 900 0 899 0 19 -43 c28 -63 72 -91 152
-95 55 -3 70 0 99 20 62 42 76 70 76 156 0 90 -21 129 -85 162 -70 36 -149 24
-205 -31 l-31 -29 -964 -2 -965 -3 -3 -975 -2 -975 -125 3 -125 3 0 -165 0
-166 -197 0 -198 0 0 163 0 162 -45 1 -45 1 -3 1581 -2 1582 727 2 727 3 -3
446 -3 446 34 24 c46 33 65 58 78 106 31 109 -40 220 -148 231 -65 6 -114 -11
-151 -53 -79 -90 -56 -233 46 -287 l43 -23 0 -398 0 -399 -740 3 -740 2 -3
-1632 -2 -1633 -80 -1 -80 -2 -3 -162 -2 -163 -195 0 -195 0 -2 163 -3 162
-73 1 -72 2 0 2137 c0 2120 0 2137 20 2165 31 44 44 117 31 168 -28 103 -126
153 -237 121z"/>
<path d="M7670 4298 c0 -2 -1 -621 -3 -1377 l-2 -1374 -44 -13 c-80 -23 -123
-83 -124 -173 0 -77 32 -134 95 -167 39 -20 122 -18 167 6 98 49 120 206 41
287 l-30 31 -2 1388 -3 1389 -47 3 c-27 2 -48 2 -48 0z"/>
<path d="M8510 2775 l0 -1525 873 0 872 -1 20 -41 c31 -65 63 -83 150 -83 59
0 79 4 102 21 104 77 95 255 -17 312 -25 12 -62 22 -85 22 -51 -1 -119 -31
-140 -64 l-17 -26 -809 0 -809 0 -2 1453 -3 1452 -67 3 -68 3 0 -1526z"/>
<path d="M9255 4288 c-3 -7 -4 -495 -3 -1083 l3 -1070 932 -5 933 -5 22 -45
c33 -65 76 -90 153 -90 68 0 110 21 149 73 32 43 34 150 4 202 -41 71 -143
104 -221 71 -32 -13 -97 -78 -97 -96 0 -6 -323 -10 -885 -10 l-885 0 -2 1033
-3 1032 -48 3 c-32 2 -49 -1 -52 -10z"/>
</g>
</svg>
