<svg version="1.1" id="Layer_1" xmlns="http://www.w3.org/2000/svg" xmlns:xlink="http://www.w3.org/1999/xlink" x="0px" y="0px"
	 viewBox="0 0 495 495" style="enable-background:new 0 0 495 495;" xml:space="preserve">
<g>
	<polygon style="fill:#1E81CE;" points="247.5,0 247.5,40 455,40 455,455 247.5,455 247.5,495 495,495 495,0 	"/>
	<polygon style="fill:#3D9AE2;" points="40,455 40,40 247.5,40 247.5,0 0,0 0,495 247.5,495 247.5,455 	"/>
	<path style="fill:#3D9AE2;" d="M127.323,167.186h0.446c23.551,0,38.194-15.601,38.194-35.101
		c-0.442-19.928-14.643-35.087-37.752-35.087C105.107,96.998,90,112.157,90,132.085C90,151.585,104.678,167.186,127.323,167.186z"/>
	<path style="fill:#3D9AE2;" d="M266.4,398.002V284.576c0-6.086,0.464-12.119,2.24-16.459c4.887-12.149,15.978-24.693,34.641-24.693
		c24.439,0,34.195,18.629,34.195,45.92v108.657H405V281.535c0-62.379-33.307-91.398-77.744-91.398
		c-35.871,0-51.883,19.74-60.856,33.547v0.665h-0.442c0.118-0.219,0.306-0.442,0.442-0.665v-28.779h-67.537
		c0.905,19.053,0,203.096,0,203.096H266.4z"/>
	<rect x="94.016" y="194.906" style="fill:#3D9AE2;" width="67.506" height="203.096"/>
</g>
</svg>
