<svg xmlns="http://www.w3.org/2000/svg" xmlns:xlink="http://www.w3.org/1999/xlink" viewBox="0 0 74.375 85" fill="#fff" fill-rule="evenodd" stroke="#000" stroke-linecap="round" stroke-linejoin="round"><use xlink:href="#A" x="2.188" y="2.5"/><symbol id="A" overflow="visible"><path d="M31.842.854a6.27 6.27 0 0 1 6.315 0L67.001 17.75c1.808 1.056 3.017 3.143 2.999 5.304v33.897c.014 2.25-1.315 4.387-3.223 5.419L38.036 79.185c-1.952 1.158-4.494 1.069-6.385-.184l-8.624-5.171c-.587-.363-1.249-.652-1.664-1.242.367-.512 1.022-.576 1.554-.8 1.199-.395 2.301-1.03 3.402-1.646.279-.198.619-.122.886.055l7.357 4.411c.526.315 1.058-.103 1.508-.363l28.22-16.517c.348-.174.541-.557.513-.953l.003-33.547c.04-.449-.211-.862-.602-1.046L35.563 5.44c-.339-.241-.785-.242-1.125-.002L5.799 22.187a1.04 1.04 0 0 0-.605 1.041v33.549c-.034.395.173.771.519.941l7.649 4.48c1.436.802 3.2 1.278 4.782.664 1.396-.519 2.375-1.997 2.349-3.535l.01-33.35c-.035-.494.417-.901.879-.855l3.674.003c.511-.012.863.519.8 1.017l-.008 33.561c.003 2.981-1.178 6.225-3.837 7.684-3.276 1.76-7.325 1.387-10.561-.301-2.802-1.45-5.475-3.162-8.227-4.715C1.309 61.344-.013 59.199 0 56.951V23.054a6.21 6.21 0 0 1 3.102-5.371L31.842.854zm8.359 23.481c4.179-.279 8.652-.165 12.412 1.97 2.911 1.636 4.525 5.07 4.577 8.424-.081.452-.537.702-.954.671-1.212-.002-2.425.017-3.637-.009-.514.02-.813-.471-.878-.943-.348-1.605-1.192-3.195-2.649-3.969-2.236-1.161-4.829-1.103-7.267-1.078-1.78.098-3.694.258-5.202 1.343-1.158.822-1.509 2.482-1.096 3.819.389.96 1.458 1.27 2.332 1.555 5.036 1.366 10.372 1.23 15.312 3.028 2.045.733 4.046 2.157 4.746 4.378.916 2.976.514 6.534-1.528 8.923-1.656 1.966-4.067 3.036-6.473 3.618-3.2.74-6.521.759-9.77.43-3.056-.361-6.235-1.194-8.594-3.353-2.017-1.816-3.002-4.647-2.905-7.378.023-.461.466-.783.892-.745l3.663.002c.488-.036.849.401.874.878.225 1.529.78 3.134 2.065 4.041 2.481 1.66 5.595 1.547 8.436 1.593 2.354-.108 4.996-.141 6.917-1.755 1.014-.92 1.314-2.46 1.04-3.785-.297-1.118-1.425-1.639-2.393-1.98-4.971-1.631-10.367-1.039-15.29-2.883-1.999-.733-3.932-2.118-4.699-4.247-1.071-3.014-.581-6.742 1.675-9.051 2.199-2.296 5.375-3.181 8.393-3.497z" fill="#8cc84b" stroke="none"/></symbol></svg>