<?xml version="1.0" ?><svg enable-background="new 0 0 512 512" id="Layer_1" version="1.1" viewBox="0 0 512 512" xml:space="preserve" xmlns="http://www.w3.org/2000/svg" xmlns:xlink="http://www.w3.org/1999/xlink"><g><g><linearGradient gradientUnits="userSpaceOnUse" id="SVGID_1_" x1="-0.0000027" x2="512" y1="256" y2="256"><stop offset="0" style="stop-color:#00AEEE"/><stop offset="1" style="stop-color:#0095DA"/></linearGradient><circle cx="256" cy="256" fill="url(#SVGID_1_)" r="256"/><linearGradient gradientUnits="userSpaceOnUse" id="SVGID_2_" x1="42.6666641" x2="469.3333435" y1="256.0005188" y2="256.0005188"><stop offset="0" style="stop-color:#0095DA"/><stop offset="1" style="stop-color:#00AEEE"/></linearGradient><path d="M256,469.3338623c-117.631012,0-213.3333435-95.7018738-213.3333435-213.3333435    S138.368988,42.6671982,256,42.6671982c117.6362,0,213.3333435,95.7018661,213.3333435,213.333313    S373.6362,469.3338623,256,469.3338623z" fill="url(#SVGID_2_)"/></g><path d="M144,144.3840027v239.2319946h240V144.3840027H144z M182.0703278,343.7754822l36.4026642-36.4053345   l-36.4026642-36.4037476l6.7872009-6.7872009l43.1904755,43.1909485l-43.1904755,43.1930542L182.0703278,343.7754822z    M283.7817993,351.9690552h-58.5210724v-9.5999756h58.5210724V351.9690552z" opacity="0.3"/><path d="M136,136.3840027v239.2319946h240V136.3840027H136z M174.0703278,335.7754822l36.4026642-36.4053345   l-36.4026642-36.4037476l6.7872009-6.7872009l43.1904755,43.1909485l-43.1904755,43.1930542L174.0703278,335.7754822z    M275.7817993,343.9690552h-58.5210724v-9.5999756h58.5210724V343.9690552z" fill="#FFFFFF"/></g></svg>