<svg xmlns="http://www.w3.org/2000/svg" xmlns:xlink="http://www.w3.org/1999/xlink" viewBox="0 0 66 65" fill="#fff" fill-rule="evenodd" stroke="#000" stroke-linecap="round" stroke-linejoin="round"><use xlink:href="#A" x=".5" y=".5"/><symbol id="A" overflow="visible"><path d="M42.057 0H21.943C9.874 0 0 9.874 0 21.943v20.114C0 54.126 9.874 64 21.943 64h20.114C54.126 64 64 54.126 64 42.057V21.943C64 9.874 54.126 0 42.057 0zM44.8 40.96c0 2.857-4.183 5.2-7.04 5.2H26.24c-2.88 0-7.04-2.33-7.04-5.2v-.274h25.6zm0-6.217H26.24c-2.857 0-7.04-2.354-7.04-5.2v-.274h18.56c2.857 0 7.04 2.354 7.04 5.2zm0-11.43H19.2v-.274c0-2.857 4.16-5.2 7.04-5.2h11.52c2.88 0 7.04 2.33 7.04 5.2z" stroke="none" fill="#16161d" fill-rule="nonzero"/></symbol></svg>